<svg xmlns="http://www.w3.org/2000/svg" xmlns:svg="http://www.w3.org/2000/svg" id="svg2" width="10.055" height="10.672" version="1.1" viewBox="0 0 9.426 10.005"><metadata id="metadata7"/><g id="layer1" transform="translate(811.49518,-210.42337)"><g id="text3426" fill="#fff" fill-opacity="1" stroke="none" stroke-linecap="butt" stroke-linejoin="miter" stroke-opacity="1" stroke-width="1" font-family="sans-serif" font-size="13.116" font-style="normal" font-weight="normal" letter-spacing="0" word-spacing="0" style="line-height:125%"><path id="path3431" fill="#fff" d="m -807.47048,210.81162 2.49762,0 q 0.37144,0 0.58278,0.53795 l 0.4739,0.80052 0.63401,-0.35223 0.0384,0 0,0.0128 q -1.00545,1.76114 -1.10792,1.89562 l -2.19662,0 0,-0.032 q 0.6212,-0.33942 0.65322,-0.39705 l -1.26802,-2.26707 q -0.22415,-0.16651 -0.3074,-0.16651 l 0,-0.032 z m -0.65322,0.064 q 0.67243,0 0.94141,0.58918 l 0.3138,0.55076 -1.236,2.11337 q -1.70991,-0.98624 -1.88282,-1.10792 0.95422,-1.66508 1.09511,-1.84439 0.3138,-0.301 0.7685,-0.301 z m 5.04006,2.72817 q 1.06309,1.78035 1.06309,1.92764 l 0.0128,0.24977 q 0,0.65322 -0.6212,1.02466 -0.0961,0.0512 -0.35223,0.0512 l -0.80052,0 q -0.0897,-0.0961 -1.21038,-2.10696 0.15369,-0.1473 1.44093,-0.86456 l 0.4675,-0.28178 z m -6.25045,0.45469 q 1.09511,1.8444 1.10792,1.92765 l -0.71726,-0.40346 q -1.2296,2.11337 -1.25521,2.21583 l -0.0192,0.26257 0.032,0.18572 -0.032,0 -1.28723,-2.22864 -0.0512,-0.20493 q 0.0256,-0.19853 0.53794,-1.01826 0.16651,-0.26257 0.16651,-0.33302 l -0.64041,-0.36503 0,-0.0192 1.46014,0 0.69805,-0.0192 z m 3.96417,2.24145 0.0128,0 0,0.73648 2.52323,0 q 0.21134,0 0.40346,-0.16651 l 0.0192,0 q 0,0.0576 -1.28724,2.28628 -0.1537,0.1473 -0.35223,0.1473 l -1.30644,0 0,0.73647 -0.032,0 -1.0759,-1.87641 1.09511,-1.86361 z m -1.6971,0.73648 0.032,0.0384 0,2.19663 -0.032,0.032 -1.8572,0 q -0.74288,0 -1.04388,-0.81973 l -0.032,-0.3074 q 0,-0.3074 0.53795,-1.13994 l 2.39515,0 z"/></g></g></svg>